<svg id="8906bc69-be9c-4426-8b42-9e75f82d896e" data-name="Layer 1" xmlns="http://www.w3.org/2000/svg" viewBox="0 0 40 40">
  <title>international-networks--menu-2</title>
  <path d="M11.77539,6.36621a32.3175,32.3175,0,0,1,6.708-.63281c3.6709,0,6.0332.63281,7.7627,2.06738a5.9929,5.9929,0,0,1,2.40527,5.02051,6.72819,6.72819,0,0,1-4.80957,6.24463v.12646a7.24281,7.24281,0,0,1,5.86426,7.08789,7.54337,7.54337,0,0,1-2.44727,5.6958c-1.94043,1.814-5.14746,2.65771-9.78809,2.65771a42.87973,42.87973,0,0,1-5.69531-.3374Zm3.66992,11.64453h3.333c3.83984,0,6.11816-2.06738,6.11816-4.80957,0-3.291-2.48926-4.64111-6.20215-4.64111a15.7525,15.7525,0,0,0-3.249.25342Zm0,13.58545a19.976,19.976,0,0,0,3.08008.16895c3.79688,0,7.29883-1.39258,7.29883-5.52686,0-3.83936-3.333-5.48486-7.34082-5.48486H15.44531Z"/>
</svg>
