<svg id="4815d249-5c60-466b-b243-5b4cd89ed46d" data-name="Layer 1" xmlns="http://www.w3.org/2000/svg" viewBox="0 0 40 40">
  <title>international-networks--menu-4</title>
  <path d="M9.11719,6.32422a53.66205,53.66205,0,0,1,7.84766-.59082c5.27441,0,9.0293,1.22363,11.51855,3.54395,2.57324,2.3208,4.0498,5.61133,4.0498,10.21045,0,4.64111-1.47656,8.438-4.0918,11.05322-2.7002,2.6582-7.08887,4.09277-12.61523,4.09277a51.44444,51.44444,0,0,1-6.709-.33691Zm3.71289,25.1875a23.80677,23.80677,0,0,0,3.71289.16895c7.84766.042,12.10938-4.3877,12.10938-12.06641.042-6.7085-3.75586-10.96973-11.51855-10.96973a20.8612,20.8612,0,0,0-4.30371.37988Z"/>
</svg>
