<svg id="01f526be-1614-48fd-a4b5-621e998e85cf" data-name="Layer 1" xmlns="http://www.w3.org/2000/svg" viewBox="0 0 40 40">
  <title>international-networks--menu-7</title>
  <path d="M31.26758,32.11523a25.71408,25.71408,0,0,1-8.77539,1.56055c-4.30371,0-7.84766-1.09668-10.63184-3.75391A14.62929,14.62929,0,0,1,7.89453,19.332c0-8.48047,5.86426-14.68359,15.39941-14.68359A17.8185,17.8185,0,0,1,30.42383,5.957l-.92773,2.99609A14.12053,14.12053,0,0,0,23.209,7.72852c-6.91895,0-11.43359,4.30371-11.43359,11.43359,0,7.21484,4.30371,11.47656,10.96973,11.47656a11.97026,11.97026,0,0,0,4.89453-.75977V21.39844H21.90137V18.44531h9.36621Z"/>
</svg>
